<svg width="1141" height="726" fill="none" xmlns="http://www.w3.org/2000/svg"><path d="M636.5 4.018H0v721h448.5v-343c0-53.6 43.667-66 65.5-65.5 168.667.167 517.3.4 562.5 0 45.2-.4 58.83-32.5 60-48.5v-120.5c0-43.6-37-55.167-55.5-55.5-20.33-1.333-61 7.9-61 55.5s-41.667 61.5-62.5 62.5H330c-17.833.5-53.5-8.5-53.5-48.5s35.667-52.333 53.5-53.5h306.5c17.333.5 52-9.2 52-52s-34.667-52.5-52-52z" fill="url(#paint0_linear)" fill-opacity=".25"/><path d="M637 4c17.5 0 53.5 11 53.5 53s-35 52.5-52.5 52.5H327.5c-16.833 1.667-50.5 14.1-50.5 50.5s33.667 48.833 50.5 50.5h634c19.833-.833 59.5-13.9 59.5-59.5s38.67-57.667 58-58c19.33-.5 58 10.4 58 58v108.5c0 19.333-11.6 58-58 58H512.5C492 318 451 331 451 379v346M637 4H0" stroke="#fff" stroke-width="8"/><defs><linearGradient id="paint0_linear" x1="1136.5" y1="171.018" x2="-167.5" y2="488.018" gradientUnits="userSpaceOnUse"><stop stop-color="#13F9F9" stop-opacity=".79"/><stop offset="1" stop-color="#fff" stop-opacity="0"/></linearGradient></defs></svg>